<svg xmlns="http://www.w3.org/2000/svg" width="24" height="35" viewBox="0 0 24 35">
  <defs>
    <style>
      .cls-1 {
        fill: #ff506b;
        fill-rule: evenodd;
      }
    </style>
  </defs>
  <path id="map-pointer" class="cls-1" d="M4937.43,2815.71a9.969,9.969,0,0,0-.56-1.4,11.923,11.923,0,0,0-22.87,3.55v1.49c0,0.06.02,0.62,0.05,0.9,0.43,3.49,3.17,7.19,5.22,10.67,2.19,3.74,4.48,7.41,6.74,11.08,1.39-2.4,2.78-4.82,4.14-7.16,0.37-.68.8-1.36,1.17-2.02,0.25-.43.73-0.87,0.94-1.27,2.2-4.05,5.74-8.12,5.74-12.14v-1.65A12.441,12.441,0,0,0,4937.43,2815.71Zm-11.5,7.5a4.254,4.254,0,0,1-4.07-2.93,3.891,3.891,0,0,1-.12-1.09v-0.96c0-2.74,2.31-3.98,4.33-3.98a4.4,4.4,0,0,1,4.39,4.48A4.509,4.509,0,0,1,4925.93,2823.21Z" transform="translate(-4914 -2807)"/>
</svg>
