<svg xmlns="http://www.w3.org/2000/svg" width="47" height="68.53" viewBox="0 0 47 68.53">
  <defs>
    <style>
      .cls-1 {
        fill: #619d09;
        fill-rule: evenodd;
      }
    </style>
  </defs>
  <path id="user-location" class="cls-1" d="M5161.89,2946.42a22.6,22.6,0,0,0-1.1-2.8,22.921,22.921,0,0,0-21.61-14.62c-10.31,0-21.67,7.09-23.18,21.71v2.99c0,0.13.04,1.25,0.1,1.81,0.85,6.96,6.21,14.37,10.21,21.34,18.39,26.12,7.66,26.08,21.32,7.84,0.73-1.37,1.57-2.74,2.3-4.05,0.48-.87,1.41-1.74,1.83-2.55,4.31-8.09,11.24-16.24,11.24-24.26v-3.3A25.4,25.4,0,0,0,5161.89,2946.42Zm-22.52,15c-3.03,0-6.35-1.56-7.99-5.85a8.422,8.422,0,0,1-.22-2.18v-1.93c0-5.47,4.53-7.96,8.47-7.96a8.71,8.71,0,0,1,8.61,8.96A8.926,8.926,0,0,1,5139.37,2961.42Z" transform="translate(-5116 -2929)"/>
</svg>
